<?xml version="1.0" standalone="no"?><!DOCTYPE svg PUBLIC "-//W3C//DTD SVG 1.1//EN" "http://www.w3.org/Graphics/SVG/1.1/DTD/svg11.dtd">
<svg t="1554987438021" class="icon" style="" viewBox="0 0 1024 1024" version="1.1" 
  xmlns="http://www.w3.org/2000/svg" p-id="1106" 
  xmlns:xlink="http://www.w3.org/1999/xlink" width="200" height="200">
  <defs>
    <style type="text/css"></style>
  </defs>
  <path d="M762.1 456.2H260c-11.3 0-20.5-9.2-20.5-20.5s9.2-20.5 20.5-20.5h502.1c11.3 0 20.5 9.2 20.5 20.5s-9.2 20.5-20.5 20.5zM644.1 608.7H378c-11.3 0-20.5-9.2-20.5-20.5s9.2-20.5 20.5-20.5h266.2c11.3 0 20.5 9.2 20.5 20.5s-9.2 20.5-20.6 20.5zM762.1 761.1H260c-11.3 0-20.5-9.2-20.5-20.5s9.2-20.5 20.5-20.5h502.1c11.3 0 20.5 9.2 20.5 20.5s-9.2 20.5-20.5 20.5z" p-id="1107"></path>
  <path d="M828.8 924.2h-631c-51.6 0-93.5-43.2-93.5-96.3V284.8c0-54.3 42.9-98.5 95.7-98.5h159.6c17 0 30.7 13.8 30.7 30.7s-13.8 30.7-30.7 30.7H200c-18.9 0-34.2 16.6-34.2 37.1V828c0 19.2 14.4 34.8 32 34.8h631c17.7 0 32-15.6 32-34.8V282.5c0-19.2-14.4-34.8-32-34.8H685.5c-17 0-30.7-13.8-30.7-30.7s13.8-30.7 30.7-30.7h143.3c51.6 0 93.5 43.2 93.5 96.3V828c0 53-41.9 96.2-93.5 96.2z" p-id="1108"></path>
  <path d="M663.8 209.2v19.6c-6 16.5-12.9 17.4-36.7 17.4H399.9c-8.8 0-16.2-2.6-22.2-17.4v-19.6c0-15.9 13.2-28.8 29.4-28.8h64.1c11.9 0 21.6-9.5 21.6-21.1v-13.6c0-15 12.6-27.4 27.9-27.4 15.3 0 27.8 12.2 27.8 27.2V161c0 10.7 8.9 19.4 19.8 19.4h65.9c16.4 0 29.6 12.9 29.6 28.8z" p-id="1109"></path>
  <path d="M627.1 264.8H399.9c-18.6 0-31.5-9.5-39.4-29-0.9-2.2-1.3-4.6-1.3-6.9v-19.6c0-26.1 21.5-47.4 48-47.4h64.1c1.7 0 3-1.2 3-2.6v-13.6c0-25.3 20.9-45.9 46.5-45.9 25.5 0 46.3 20.5 46.3 45.7V161c0 0.4 0.5 0.9 1.3 0.9h65.9c26.5 0 48 21.3 48 47.4v19.6c0 2.2-0.4 4.3-1.1 6.3-10.7 29.6-31.8 29.6-54.1 29.6z m36.7-35.9zM398 227.6c0.3 0 0.9 0.1 1.9 0.1h227.2c4.7 0 14.3 0 17.4-0.9 0.2-0.3 0.4-0.8 0.8-1.5v-16.1c0-5.7-4.9-10.3-10.9-10.3h-65.9c-21.2 0-38.4-17-38.4-38v-15.5c0-4.7-4.1-8.6-9.2-8.6s-9.4 4-9.4 8.8v13.6c0 21.9-18 39.7-40.1 39.7h-64.1c-6 0-10.9 4.6-10.9 10.3v15.7c0.7 1.6 1.3 2.4 1.6 2.7z" p-id="1110"></path>
</svg>